<svg xmlns="http://www.w3.org/2000/svg" version="1.1" xmlns:xlink="http://www.w3.org/1999/xlink" xmlns:svgjs="http://svgjs.dev/svgjs" width="1920" height="919" preserveAspectRatio="none" viewBox="0 0 1920 919"><g mask="url(&quot;#SvgjsMask1123&quot;)" fill="none"><rect width="1920" height="919" x="0" y="0" fill="rgba(255, 252, 255, 1)"></rect><path d="M665.262,252.375C713.465,252.765,754.794,220.311,777.808,177.954C799.762,137.548,799.368,88.639,775.622,49.259C752.626,11.123,709.781,-7.567,665.262,-8.689C618.393,-9.87,568.715,3.1,544.83,43.444C520.593,84.383,532.071,134.937,555.83,176.156C579.624,217.434,617.619,251.989,665.262,252.375" fill="rgba(64, 249, 155, 1)" class="triangle-float2"></path><path d="M207.966,259.284C272.616,263.433,337.719,232.702,369.033,175.99C399.5,120.811,385.686,53.034,350.854,0.502C319.661,-46.543,264.404,-67.946,207.966,-66.926C153.487,-65.942,100.889,-41.74,73.75,5.508C46.707,52.589,53.738,109.39,79.122,157.386C106.559,209.264,149.399,255.526,207.966,259.284" fill="rgba(64, 249, 155, 1)" class="triangle-float2"></path><path d="M1037.285,1193.931C1108.758,1189.453,1151.545,1120.511,1182.806,1056.081C1209.381,1001.31,1214.312,940.047,1186.822,885.729C1156.173,825.169,1105.12,770.852,1037.285,768.545C966.208,766.128,905.056,813.604,869.031,874.923C832.472,937.149,822.669,1012.698,856.338,1076.534C892.288,1144.694,960.376,1198.749,1037.285,1193.931" fill="rgba(64, 249, 155, 1)" class="triangle-float3"></path><path d="M1261.625,635.44C1297.113,635.917,1329.425,615.938,1347.407,585.34C1365.64,554.315,1368.662,515.564,1350.237,484.653C1332.202,454.395,1296.846,440.914,1261.625,441.422C1227.368,441.916,1194.473,457.483,1177.329,487.146C1160.172,516.832,1162.805,553.277,1179.749,583.085C1196.907,613.269,1226.908,634.973,1261.625,635.44" fill="rgba(64, 249, 155, 1)" class="triangle-float2"></path><path d="M1564.22,404.31C1593.998,405.83,1616.96,381.337,1631.971,355.574C1647.111,329.59,1657.681,297.18,1641.357,271.923C1625.844,247.922,1592.749,249.082,1564.22,250.752C1539.45,252.202,1513.675,258.625,1501.286,280.123C1488.911,301.597,1496.272,327.112,1507.475,349.219C1520.248,374.423,1536.001,402.87,1564.22,404.31" fill="rgba(64, 249, 155, 1)" class="triangle-float3"></path><path d="M763.849,1035.447C833.122,1029.233,894.245,992.757,929.132,932.589C964.141,872.211,970.383,798.495,936.678,737.379C901.833,674.195,835.979,634.794,763.849,632.882C688.172,630.876,616.752,665.037,574.386,727.776C525.862,799.635,492.295,893.863,537.76,967.695C581.975,1039.496,679.863,1042.981,763.849,1035.447" fill="rgba(64, 249, 155, 1)" class="triangle-float1"></path><path d="M326.91,860.518C366.468,860.652,403.711,840.81,423.643,806.64C443.726,772.21,444.332,729.004,423.415,695.074C403.424,662.646,364.993,650.66,326.91,649.724C286.7,648.736,242.814,655.809,221.823,690.119C200.147,725.548,209.506,770.636,231.308,805.988C251.948,839.456,287.589,860.385,326.91,860.518" fill="rgba(64, 249, 155, 1)" class="triangle-float3"></path><path d="M1144.598,684.051C1218.275,687.34,1292.632,661.898,1333.31,600.381C1378.348,532.269,1391.884,442.944,1350.622,372.48C1309.712,302.618,1225.545,276.71,1144.598,278.114C1066.418,279.47,987.052,310.248,950.592,379.419C915.965,445.113,943.087,522.103,982.978,584.74C1019.383,641.903,1076.894,681.028,1144.598,684.051" fill="rgba(64, 249, 155, 1)" class="triangle-float1"></path><path d="M222.004,698.597C263.394,696.049,292.351,661.206,311.124,624.231C327.886,591.216,331.449,552.337,312.375,520.602C293.824,489.736,257.973,477.72,222.004,475.952C181.774,473.974,137.632,477.7,114.812,510.891C89.377,547.886,89.35,597.526,111.613,636.512C134.051,675.804,176.841,701.377,222.004,698.597" fill="rgba(64, 249, 155, 1)" class="triangle-float1"></path><path d="M1402.345,690.349C1449.128,691.387,1492.562,664.613,1515.015,623.557C1536.631,584.031,1531.935,535.658,1507.719,497.669C1485.249,462.419,1444.128,445.529,1402.345,446.808C1362.856,448.016,1328.074,470.019,1307.579,503.794C1286.201,539.024,1279.351,582.003,1298.014,618.743C1318.489,659.05,1357.147,689.346,1402.345,690.349" fill="rgba(64, 249, 155, 1)" class="triangle-float3"></path><path d="M75.823,344.561C137.399,346.867,198.417,321.809,231.158,269.608C265.947,214.142,269.885,143.482,237.704,86.463C205.001,28.519,142.342,-7.113,75.823,-5.619C11.686,-4.178,-44.51,36.456,-73.933,93.464C-101.094,146.088,-90.926,207.823,-60.592,258.684C-31.094,308.144,18.274,342.406,75.823,344.561" fill="rgba(64, 249, 155, 1)" class="triangle-float1"></path></g><defs><mask id="SvgjsMask1123"><rect width="1920" height="919" fill="#ffffff"></rect></mask><style>
                @keyframes float1 {
                    0%{transform: translate(0, 0)}
                    50%{transform: translate(-10px, 0)}
                    100%{transform: translate(0, 0)}
                }

                .triangle-float1 {
                    animation: float1 5s infinite;
                }

                @keyframes float2 {
                    0%{transform: translate(0, 0)}
                    50%{transform: translate(-5px, -5px)}
                    100%{transform: translate(0, 0)}
                }

                .triangle-float2 {
                    animation: float2 4s infinite;
                }

                @keyframes float3 {
                    0%{transform: translate(0, 0)}
                    50%{transform: translate(0, -10px)}
                    100%{transform: translate(0, 0)}
                }

                .triangle-float3 {
                    animation: float3 6s infinite;
                }
            </style></defs></svg>