<svg xmlns="http://www.w3.org/2000/svg" version="1.1" xmlns:xlink="http://www.w3.org/1999/xlink" xmlns:svgjs="http://svgjs.dev/svgjs" width="1920" height="919" preserveAspectRatio="none" viewBox="0 0 1920 919"><g mask="url(&quot;#SvgjsMask1030&quot;)" fill="none"><rect width="1920" height="919" x="0" y="0" fill="rgba(255, 252, 255, 1)"></rect><path d="M1840.087,324.616C1905.049,323.002,1959.699,282.23,1993.32,226.622C2028.351,168.682,2045.892,97.496,2013.28,38.161C1979.666,-22.996,1909.833,-49.796,1840.087,-52.169C1765.162,-54.718,1682.938,-39.142,1645.207,25.639C1607.305,90.714,1631.953,171.489,1673.076,234.578C1710.091,291.365,1772.322,326.299,1840.087,324.616" fill="rgba(64, 249, 155, 1)" class="triangle-float2"></path><path d="M318.586,788.488C397.059,784.852,457.197,725.881,494.726,656.868C530.338,591.38,540.525,513.113,503.525,448.399C466.276,383.25,393.631,349.106,318.586,348.791C242.949,348.474,171.487,382.983,130.944,446.837C87.17,515.78,72.398,603.032,111.712,674.612C152.326,748.56,234.309,792.392,318.586,788.488" fill="rgba(64, 249, 155, 1)" class="triangle-float2"></path><path d="M1710.346,606.949C1754.936,609.012,1799.869,591.264,1823.116,553.157C1847.26,513.581,1848.21,461.856,1822.322,423.399C1798.746,388.376,1752.482,382.994,1710.346,385.634C1673.545,387.939,1639.455,404.554,1620.291,436.056C1600.31,468.9,1596.389,509.483,1614.311,543.494C1633.482,579.875,1669.267,605.048,1710.346,606.949" fill="rgba(64, 249, 155, 1)" class="triangle-float3"></path><path d="M1667.116,1128.932C1734.122,1129.657,1800.158,1103.043,1835.36,1046.024C1872.315,986.166,1874.991,910.101,1839.833,849.17C1804.66,788.214,1737.492,754.239,1667.116,754.448C1597.115,754.656,1530.493,789.183,1496.166,850.19C1462.447,910.116,1469.117,983.832,1505.065,1042.448C1539.373,1098.389,1601.496,1128.222,1667.116,1128.932" fill="rgba(64, 249, 155, 1)" class="triangle-float3"></path><path d="M1058.413,1194.005C1136.835,1191.252,1204.575,1142.907,1242.514,1074.218C1279.157,1007.875,1278.969,928.1,1241.743,862.082C1203.827,794.841,1135.607,747.737,1058.413,747.732C981.21,747.727,915.298,796.181,875.039,862.056C832.7,931.334,811.213,1016.914,850.472,1087.982C890.794,1160.974,975.075,1196.931,1058.413,1194.005" fill="rgba(64, 249, 155, 1)" class="triangle-float2"></path></g><defs><mask id="SvgjsMask1030"><rect width="1920" height="919" fill="#ffffff"></rect></mask><style>
                @keyframes float1 {
                    0%{transform: translate(0, 0)}
                    50%{transform: translate(-10px, 0)}
                    100%{transform: translate(0, 0)}
                }

                .triangle-float1 {
                    animation: float1 5s infinite;
                }

                @keyframes float2 {
                    0%{transform: translate(0, 0)}
                    50%{transform: translate(-5px, -5px)}
                    100%{transform: translate(0, 0)}
                }

                .triangle-float2 {
                    animation: float2 4s infinite;
                }

                @keyframes float3 {
                    0%{transform: translate(0, 0)}
                    50%{transform: translate(0, -10px)}
                    100%{transform: translate(0, 0)}
                }

                .triangle-float3 {
                    animation: float3 6s infinite;
                }
            </style></defs></svg>