<svg width="500" height="18" viewBox="0 0 500 18" fill="none" xmlns="http://www.w3.org/2000/svg">
<rect width="500" height="18" rx="9" fill="#9381FF"/>
<mask id="path-2-outside-1_7_217" maskUnits="userSpaceOnUse" x="0" y="0" width="425" height="18" fill="black">
<rect fill="white" width="425" height="18"/>
<path d="M0 9C0 4.02944 4.02944 0 9 0H413.794C418.765 0 422.794 4.02944 422.794 9V9C422.794 13.9706 418.765 18 413.794 18H9C4.02944 18 0 13.9706 0 9V9Z"/>
</mask>
<path d="M0 9C0 4.02944 4.02944 0 9 0H413.794C418.765 0 422.794 4.02944 422.794 9V9C422.794 13.9706 418.765 18 413.794 18H9C4.02944 18 0 13.9706 0 9V9Z" fill="#40F99B"/>
<path d="M0 0H422.794H0ZM422.794 18H0H422.794ZM0 18V0V18ZM415.794 0C420.765 0 424.794 4.02944 424.794 9C424.794 13.9706 420.765 18 415.794 18H413.794C417.66 18 420.794 13.9706 420.794 9C420.794 4.02944 417.66 0 413.794 0H415.794Z" fill="#FFFCFF" mask="url(#path-2-outside-1_7_217)"/>
</svg>
