<svg width="500" height="18" viewBox="0 0 500 18" fill="none" xmlns="http://www.w3.org/2000/svg">
<rect width="500" height="18" rx="9" fill="#9381FF"/>
<mask id="path-2-outside-1_7_220" maskUnits="userSpaceOnUse" x="0" y="0" width="360" height="18" fill="black">
<rect fill="white" width="360" height="18"/>
<path d="M0 9C0 4.02944 4.02944 0 9 0H348.353C353.323 0 357.353 4.02944 357.353 9V9C357.353 13.9706 353.323 18 348.353 18H9.00001C4.02945 18 0 13.9706 0 9V9Z"/>
</mask>
<path d="M0 9C0 4.02944 4.02944 0 9 0H348.353C353.323 0 357.353 4.02944 357.353 9V9C357.353 13.9706 353.323 18 348.353 18H9.00001C4.02945 18 0 13.9706 0 9V9Z" fill="#40F99B"/>
<path d="M0 0H357.353H0ZM357.353 18H0H357.353ZM0 18V0V18ZM350.353 0C355.323 0 359.353 4.02944 359.353 9C359.353 13.9706 355.323 18 350.353 18H348.353C352.219 18 355.353 13.9706 355.353 9C355.353 4.02944 352.219 0 348.353 0H350.353Z" fill="#FFFCFF" mask="url(#path-2-outside-1_7_220)"/>
</svg>
