<svg width="500" height="18" viewBox="0 0 500 18" fill="none" xmlns="http://www.w3.org/2000/svg">
<rect width="500" height="18" rx="9" fill="#9381FF"/>
<mask id="path-2-outside-1_7_214" maskUnits="userSpaceOnUse" x="0" y="0" width="450" height="18" fill="black">
<rect fill="white" width="450" height="18"/>
<path d="M0 9C0 4.02944 4.02944 0 9 0H438.794C443.765 0 447.794 4.02944 447.794 9V9C447.794 13.9706 443.765 18 438.794 18H8.99999C4.02943 18 0 13.9706 0 9V9Z"/>
</mask>
<path d="M0 9C0 4.02944 4.02944 0 9 0H438.794C443.765 0 447.794 4.02944 447.794 9V9C447.794 13.9706 443.765 18 438.794 18H8.99999C4.02943 18 0 13.9706 0 9V9Z" fill="#40F99B"/>
<path d="M0 0H447.794H0ZM447.794 18H0H447.794ZM0 18V0V18ZM440.794 0C445.765 0 449.794 4.02944 449.794 9C449.794 13.9706 445.765 18 440.794 18H438.794C442.66 18 445.794 13.9706 445.794 9C445.794 4.02944 442.66 0 438.794 0H440.794Z" fill="#FFFCFF" mask="url(#path-2-outside-1_7_214)"/>
</svg>
