<svg width="500" height="18" viewBox="0 0 500 18" fill="none" xmlns="http://www.w3.org/2000/svg">
<rect width="500" height="18" rx="9" fill="#9381FF"/>
<mask id="path-2-outside-1_7_226" maskUnits="userSpaceOnUse" x="0" y="0" width="470" height="18" fill="black">
<rect fill="white" width="470" height="18"/>
<path d="M0 9C0 4.02944 4.02944 0 9 0H458.647C463.618 0 467.647 4.02944 467.647 9V9C467.647 13.9706 463.618 18 458.647 18H8.99999C4.02943 18 0 13.9706 0 9V9Z"/>
</mask>
<path d="M0 9C0 4.02944 4.02944 0 9 0H458.647C463.618 0 467.647 4.02944 467.647 9V9C467.647 13.9706 463.618 18 458.647 18H8.99999C4.02943 18 0 13.9706 0 9V9Z" fill="#40F99B"/>
<path d="M0 0H467.647H0ZM467.647 18H0H467.647ZM0 18V0V18ZM460.647 0C465.618 0 469.647 4.02944 469.647 9C469.647 13.9706 465.618 18 460.647 18H458.647C462.513 18 465.647 13.9706 465.647 9C465.647 4.02944 462.513 0 458.647 0H460.647Z" fill="#FFFCFF" mask="url(#path-2-outside-1_7_226)"/>
</svg>
