<svg width="500" height="18" viewBox="0 0 500 18" fill="none" xmlns="http://www.w3.org/2000/svg">
<rect width="500" height="18" rx="9" fill="#9381FF"/>
<mask id="path-2-outside-1_7_223" maskUnits="userSpaceOnUse" x="0" y="0" width="438" height="18" fill="black">
<rect fill="white" width="438" height="18"/>
<path d="M0 9C0 4.02944 4.02944 0 9 0H426.294C431.265 0 435.294 4.02944 435.294 9V9C435.294 13.9706 431.265 18 426.294 18H8.99999C4.02943 18 0 13.9706 0 9V9Z"/>
</mask>
<path d="M0 9C0 4.02944 4.02944 0 9 0H426.294C431.265 0 435.294 4.02944 435.294 9V9C435.294 13.9706 431.265 18 426.294 18H8.99999C4.02943 18 0 13.9706 0 9V9Z" fill="#40F99B"/>
<path d="M0 0H435.294H0ZM435.294 18H0H435.294ZM0 18V0V18ZM428.294 0C433.265 0 437.294 4.02944 437.294 9C437.294 13.9706 433.265 18 428.294 18H426.294C430.16 18 433.294 13.9706 433.294 9C433.294 4.02944 430.16 0 426.294 0H428.294Z" fill="#FFFCFF" mask="url(#path-2-outside-1_7_223)"/>
</svg>
