<svg width="500" height="18" viewBox="0 0 500 18" fill="none" xmlns="http://www.w3.org/2000/svg">
<rect width="500" height="18" rx="9" fill="#9381FF"/>
<mask id="path-2-outside-1_7_212" maskUnits="userSpaceOnUse" x="0" y="0" width="400" height="18" fill="black">
<rect fill="white" width="400" height="18"/>
<path d="M0 9C0 4.02944 4.02944 0 9 0H388.059C393.029 0 397.059 4.02944 397.059 9V9C397.059 13.9706 393.029 18 388.059 18H9.00001C4.02945 18 0 13.9706 0 9V9Z"/>
</mask>
<path d="M0 9C0 4.02944 4.02944 0 9 0H388.059C393.029 0 397.059 4.02944 397.059 9V9C397.059 13.9706 393.029 18 388.059 18H9.00001C4.02945 18 0 13.9706 0 9V9Z" fill="#40F99B"/>
<path d="M0 0H397.059H0ZM397.059 18H0H397.059ZM0 18V0V18ZM390.059 0C395.029 0 399.059 4.02944 399.059 9C399.059 13.9706 395.029 18 390.059 18H388.059C391.925 18 395.059 13.9706 395.059 9C395.059 4.02944 391.925 0 388.059 0H390.059Z" fill="#FFFCFF" mask="url(#path-2-outside-1_7_212)"/>
</svg>
