<svg width="327" height="307" viewBox="0 0 327 307" fill="none" xmlns="http://www.w3.org/2000/svg">
<path d="M5.89161 117.187C12.8918 88.1704 30.8013 63.3945 52.4021 42.7793C73.2852 22.8491 98.3763 7.25493 126.743 1.85029C154.324 -3.40484 182.203 3.22664 208.509 13.0362C234.316 22.6592 256.638 38.0843 276.113 57.5494C297.698 79.124 328.233 100.95 326.962 131.431C325.668 162.45 285.31 175.751 270.054 202.796C255.676 228.286 263.046 264.467 241.033 283.763C218.347 303.649 183.734 312.033 154.662 303.942C126.429 296.084 118.182 259.367 93.9893 242.836C69.0582 225.801 30.115 231.716 12.7847 206.999C-4.81291 181.9 -1.29569 146.979 5.89161 117.187Z" fill="#9381FF"/>
</svg>
