<svg width="191" height="170" viewBox="0 0 191 170" fill="none" xmlns="http://www.w3.org/2000/svg">
<path d="M163.903 58.7949C171.19 75.0178 190.098 86.0116 190.506 103.791C190.924 121.964 179.908 139.544 166.029 151.281C152.951 162.34 134.518 162.131 117.699 165.359C102.678 168.243 88.1349 170.564 72.9052 169.157C54.7579 167.481 34.5031 168.518 20.8759 156.417C6.92357 144.027 2.19432 123.923 0.996941 105.301C-0.141794 87.5923 6.18935 70.6396 14.3469 54.88C22.1393 39.8258 32.4774 26.2076 46.7066 16.9946C60.888 7.81256 77.5436 4.57958 94.3702 3.0673C112.433 1.44392 133.3 -3.40166 147.452 7.94017C161.642 19.3127 156.452 42.2067 163.903 58.7949Z" fill="#40F99B"/>
</svg>
