<svg width="261" height="297" viewBox="0 0 261 297" fill="none" xmlns="http://www.w3.org/2000/svg">
<path d="M157.443 39.3197C178.241 48.4133 203.906 43.284 221.996 57.0042C241.447 71.7562 258.231 93.3925 260.774 117.689C263.294 141.753 244.065 161.777 235.328 184.337C226.916 206.056 228.905 234.401 210.203 248.261C191.41 262.189 163.648 246.436 141.482 253.887C114.122 263.084 95.6202 303.145 67.6063 296.194C40.6736 289.512 38.6284 250.349 26.51 225.36C17.17 206.1 8.16388 187.277 4.55405 166.174C0.990459 145.341 -4.14095 122.543 5.726 103.858C15.4351 85.4715 42.4737 84.5861 55.9811 68.7846C73.0879 48.7724 68.4514 8.25733 93.7201 0.919201C117.943 -6.11536 134.329 29.2139 157.443 39.3197Z" fill="#9381FF"/>
</svg>
