<svg width="219" height="220" viewBox="0 0 219 220" fill="none" xmlns="http://www.w3.org/2000/svg">
<path d="M88.4953 219.933C64.3749 221.027 41.1245 206.06 24.99 187.998C8.93038 170.02 -2.14815 145.41 0.516674 121.444C3.0355 98.7908 29.0048 87.1026 38.5092 66.4144C47.5423 46.7521 36.5143 17.1997 54.1405 4.72068C71.6978 -7.70963 95.6908 8.47058 117.079 10.7885C135.114 12.7431 154.288 8.16252 170.005 17.2777C185.838 26.4606 194.263 43.8827 202.44 60.2965C210.666 76.8108 216.657 93.9945 217.403 112.429C218.248 133.272 221.839 158.246 206.998 172.82C192.002 187.547 165.556 174.75 146.043 182.508C124.347 191.134 111.822 218.875 88.4953 219.933Z" fill="#9381FF"/>
</svg>
