<svg width="280" height="291" viewBox="0 0 280 291" fill="none" xmlns="http://www.w3.org/2000/svg">
<path d="M181.632 38.8558C208.128 48.1926 245.361 31.6122 262.876 53.5825C280.267 75.3965 256.205 107.692 258.668 135.485C261.181 163.842 288.444 190.823 277.363 217.045C266.399 242.987 231.348 246.608 206.285 259.438C182.091 271.824 160.075 291.031 132.898 291C105.046 290.968 80.0883 275.471 57.4312 259.267C34.4468 242.829 9.88138 224.541 2.01293 197.395C-5.7009 170.782 10.8644 144.386 16.2548 117.207C21.7429 89.5345 16.2628 58.1525 33.9811 36.2044C52.1436 13.706 81.9588 -0.505275 110.862 0.0137515C138.321 0.506843 155.729 29.7276 181.632 38.8558Z" fill="#40F99B"/>
</svg>
