<svg width="120" height="172" viewBox="0 0 120 172" fill="none" xmlns="http://www.w3.org/2000/svg">
<path d="M38.9431 0.00197007C52.9469 0.188505 63.8461 11.2753 76.0015 18.2314C88.717 25.5079 104.409 29.4535 112.147 41.8935C119.995 54.5098 120.463 70.7399 117.75 85.3481C115.204 99.0583 102.942 108.29 97.4393 121.103C90.6222 136.975 97.288 162.288 81.5995 169.518C65.5406 176.919 50.143 154.828 32.9163 150.84C19.8225 147.808 4.59016 156.404 -6.67839 149.079C-17.9494 141.752 -17.2873 125.029 -24.3671 113.601C-32.1445 101.048 -46.3274 92.8501 -50.3213 78.6328C-54.8647 62.4596 -58.9426 41.9696 -48.093 29.1438C-36.8994 15.9113 -14.8237 22.7434 1.61145 17.2405C14.834 12.8132 25.0002 -0.183753 38.9431 0.00197007Z" fill="#9381FF"/>
</svg>
