<svg width="207" height="202" viewBox="0 0 207 202" fill="none" xmlns="http://www.w3.org/2000/svg">
<path d="M143.966 43.7506C161.843 53.1482 191.22 35.0953 202.97 51.557C214.272 67.3908 199.23 90.5714 189.356 107.339C181.707 120.327 165.777 124.821 154.174 134.416C147.117 140.251 139.45 145.156 134.385 152.794C124.118 168.278 127.6 197.301 109.58 201.663C93.642 205.522 90.0305 175.112 75.777 166.983C61.7531 158.985 42.4248 165.652 29.4873 155.986C14.819 145.026 -2.16441 128.724 0.226706 110.533C2.72329 91.5391 30.0301 87.1165 40.6339 71.1836C49.9827 57.1366 46.0873 36.7136 57.574 24.3651C70.081 10.9198 88.3186 -3.32451 106.208 0.689683C125.126 4.93474 126.795 34.7238 143.966 43.7506Z" fill="#40F99B"/>
</svg>
