<svg width="225" height="246" viewBox="0 0 225 246" fill="none" xmlns="http://www.w3.org/2000/svg">
<path d="M72.5042 7.59342C92.0886 -0.824382 115.155 -2.51929 135.392 4.42375C154.934 11.1286 168.654 28.2989 181.066 44.8403C191.906 59.2883 195.373 76.9847 202.333 93.6395C209.934 111.829 224.712 127.922 224 147.58C223.258 168.062 210.694 185.866 198.399 202.202C185.321 219.577 172.071 241 150.662 245.018C129.153 249.054 110.886 229.189 89.9746 222.55C71.4749 216.676 49.7462 220.322 34.589 208.164C19.2475 195.858 13.6007 175.503 7.88979 156.707C2.27734 138.235 -1.97544 119.047 1.77354 100.158C5.53945 81.1844 17.3157 65.4814 29.042 50.1351C41.5651 33.7463 53.5424 15.7436 72.5042 7.59342Z" fill="#40F99B"/>
</svg>
