<svg width="158" height="158" viewBox="0 0 158 158" fill="none" xmlns="http://www.w3.org/2000/svg">
<path d="M98.1721 13.8783C108.447 17.6011 122.2 13.5523 129.619 21.5778C137.029 29.5943 130.331 43.5382 134.796 53.4998C140.126 65.3909 158.526 71.4758 157.817 84.4875C157.138 96.9322 138.194 99.9407 131.684 110.569C124.669 122.025 130.603 141.823 118.788 148.216C106.855 154.673 93.2156 137.067 79.7427 138.673C65.2218 140.405 55.3523 158.026 40.7371 157.523C26.5679 157.035 11.8746 148.268 4.61981 136.087C-2.76646 123.685 0.413027 107.655 2.53251 93.3768C4.2115 82.066 14.2755 73.4821 15.599 62.1242C16.9993 50.1068 5.1953 37.6432 10.3045 26.6762C15.1791 16.2128 29.4568 14.4165 40.0069 9.73257C49.8007 5.38439 59.5544 -0.696652 70.243 0.0651739C80.7343 0.812944 88.2832 10.2954 98.1721 13.8783Z" fill="#9381FF"/>
</svg>
