<svg width="279" height="285" viewBox="0 0 279 285" fill="none" xmlns="http://www.w3.org/2000/svg">
<path d="M242.776 37.0769C264.867 57.9535 283.023 88.7313 278.085 118.723C273.262 148.018 232.604 155.985 218.864 182.303C202.808 213.058 223.822 263.67 193.558 280.632C164.637 296.842 133.162 259.78 102.315 247.628C76.3874 237.415 44.712 237.111 27.4814 215.21C10.3707 193.462 17.604 162.792 13.9839 135.358C10.0045 105.2 -8.89318 73.6926 5.25384 46.7639C19.519 19.6104 53.6885 9.81184 83.5717 2.89773C110.21 -3.2656 136.523 4.46758 163.256 10.2068C191.298 16.227 221.93 17.3776 242.776 37.0769Z" fill="#40F99B"/>
</svg>
