<svg width="176" height="176" viewBox="0 0 176 176" fill="none" xmlns="http://www.w3.org/2000/svg">
<rect x="7.5" y="7.5" width="161" height="161" rx="80.5" fill="#40F99B"/>
<rect x="7.5" y="7.5" width="161" height="161" rx="80.5" stroke="#FFFCFF" stroke-width="15"/>
<path d="M81.8275 57.065C82.3225 57.725 82.625 58.495 82.735 59.375C82.735 59.705 82.7075 60.035 82.6525 60.365C82.6525 60.64 82.625 60.915 82.57 61.19C82.515 61.795 82.1575 62.3725 81.4975 62.9225C81.1125 63.1975 80.6175 63.4725 80.0125 63.7475C79.6825 63.8575 79.325 63.94 78.94 63.995C78.61 63.995 78.225 64.0225 77.785 64.0775C77.455 64.1875 77.0975 64.2425 76.7125 64.2425C76.3275 64.2425 75.9425 64.2425 75.5575 64.2425H71.845L54.6025 64.325V64.5725L54.52 78.02C54.96 78.02 55.4275 78.02 55.9225 78.02C56.4725 78.02 57.1325 77.9925 57.9025 77.9375C60.1025 77.9375 62.055 77.9375 63.76 77.9375C65.52 77.9375 67.445 77.965 69.535 78.02H70.03C70.635 78.02 71.24 78.0475 71.845 78.1025C72.505 78.1025 73.165 78.1025 73.825 78.1025C74.43 78.1575 75.035 78.24 75.64 78.35C76.245 78.405 76.85 78.5425 77.455 78.7625C78.445 79.0925 79.16 79.615 79.6 80.33C80.205 81.045 80.5075 81.7875 80.5075 82.5575C80.5075 82.8875 80.5075 83.2175 80.5075 83.5475C80.5075 83.8225 80.4525 84.125 80.3425 84.455C80.2875 84.895 79.93 85.445 79.27 86.105C78.83 86.49 78.3075 86.7375 77.7025 86.8475C77.4275 86.9575 77.0975 87.0675 76.7125 87.1775C76.3825 87.2325 76.025 87.2875 75.64 87.3425C75.255 87.3975 74.87 87.4525 74.485 87.5075C74.155 87.5075 73.77 87.5075 73.33 87.5075H69.535L54.355 87.59L54.1075 106.73V107.39C54.1075 107.665 54.08 107.94 54.025 108.215C54.025 108.435 53.9975 108.682 53.9425 108.957C53.8325 109.232 53.7225 109.535 53.6125 109.865C53.5575 110.14 53.475 110.415 53.365 110.69C52.98 111.46 52.6225 111.982 52.2925 112.257C51.6875 112.697 50.945 113 50.065 113.165C48.58 113.495 47.1775 113.33 45.8575 112.67C45.5825 112.505 45.3075 112.312 45.0325 112.092C44.8125 111.817 44.62 111.487 44.455 111.102C44.345 110.882 44.29 110.717 44.29 110.607L44.0425 110.112C43.8775 109.837 43.7675 109.562 43.7125 109.287C43.6575 108.957 43.6025 108.655 43.5475 108.38C43.5475 108.105 43.52 107.83 43.465 107.555C43.465 107.28 43.4375 107.005 43.3825 106.73C43.3275 106.29 43.3275 105.85 43.3825 105.41V104.09L43.465 97.655L43.5475 85.775C43.6025 84.015 43.63 82.2275 43.63 80.4125C43.63 78.5975 43.63 76.7275 43.63 74.8025C43.575 72.8225 43.5475 71.0625 43.5475 69.5225C43.6025 67.9825 43.685 66.305 43.795 64.49V64.0775C43.85 63.4725 43.8775 62.9225 43.8775 62.4275C43.8775 61.8775 43.9325 61.3275 44.0425 60.7775C44.1525 59.5675 44.4275 58.495 44.8675 57.56C45.2525 56.625 45.8025 55.965 46.5175 55.58C47.3425 55.085 48.2225 54.8375 49.1575 54.8375C49.5975 54.8375 49.955 54.865 50.23 54.92V54.8375C51.22 54.8375 52.0175 54.8375 52.6225 54.8375C53.2275 54.8375 53.805 54.8375 54.355 54.8375C54.905 54.8375 55.51 54.8375 56.17 54.8375C56.83 54.7825 57.71 54.755 58.81 54.755C63.21 54.7 67.555 54.7 71.845 54.755H72.2575C72.8625 54.81 73.4675 54.8375 74.0725 54.8375C74.7325 54.8375 75.3925 54.865 76.0525 54.92C76.6575 54.92 77.2625 55.0025 77.8675 55.1675C78.4725 55.2775 79.0775 55.4425 79.6825 55.6625C80.6175 55.9375 81.3325 56.405 81.8275 57.065ZM127.198 59.7875C129.288 61.7125 130.828 64.0225 131.818 66.7175C132.808 69.3575 133.193 71.9975 132.973 74.6375C132.753 77.1675 131.955 79.505 130.58 81.65C129.205 83.74 127.115 85.335 124.31 86.435C122.11 87.37 119.938 88.03 117.793 88.415C115.648 88.8 113.283 89.1025 110.698 89.3225C109.543 89.4325 108.553 89.515 107.728 89.57C106.958 89.57 106.05 89.5975 105.005 89.6525C104.785 89.6525 104.4 89.6525 103.85 89.6525C103.355 89.6525 102.998 89.68 102.778 89.735V106.812C102.613 107.857 102.393 108.93 102.118 110.03C101.898 111.13 101.265 111.982 100.22 112.587C99.6155 112.917 98.873 113.11 97.993 113.165C97.113 113.22 96.3155 113.193 95.6005 113.083C94.8305 112.972 94.1705 112.78 93.6205 112.505C93.1255 112.175 92.713 111.625 92.383 110.855C92.163 110.36 91.943 109.81 91.723 109.205C91.558 108.545 91.4755 107.747 91.4755 106.812V61.19C91.4755 60.805 91.503 60.4475 91.558 60.1175C91.613 59.7875 91.668 59.4575 91.723 59.1275C91.833 58.8525 91.9155 58.55 91.9705 58.22C92.0255 57.89 92.108 57.5875 92.218 57.3125C92.328 57.0375 92.438 56.79 92.548 56.57C92.713 56.35 92.9055 56.1575 93.1255 55.9925C93.4005 55.7175 93.813 55.47 94.363 55.25C94.968 55.03 95.848 54.92 97.003 54.92H97.168C98.873 54.81 100.77 54.7275 102.86 54.6725C104.95 54.5625 106.683 54.59 108.058 54.755C108.828 54.865 109.543 54.9475 110.203 55.0025C110.863 55.0025 111.495 55.03 112.1 55.085C112.76 55.14 113.42 55.195 114.08 55.25C114.74 55.305 115.4 55.3875 116.06 55.4975C116.61 55.6075 117.105 55.69 117.545 55.745C118.04 55.8 118.535 55.8825 119.03 55.9925C119.47 56.1025 119.938 56.2125 120.433 56.3225C120.983 56.4325 121.478 56.625 121.918 56.9C123.073 57.23 124.035 57.6425 124.805 58.1375C125.575 58.6325 126.373 59.1825 127.198 59.7875ZM122.248 73.4C122.303 72.08 122.028 70.925 121.423 69.935C120.873 68.945 120.075 68.12 119.03 67.46C117.985 66.8 116.803 66.2775 115.483 65.8925C114.163 65.5075 112.843 65.2325 111.523 65.0675C111.193 65.0675 110.725 65.0675 110.12 65.0675C109.57 65.0125 108.965 64.985 108.305 64.985C107.645 64.93 107.013 64.9025 106.408 64.9025C105.858 64.8475 105.418 64.82 105.088 64.82C104.813 64.765 104.483 64.7375 104.098 64.7375C103.713 64.7375 103.273 64.7375 102.778 64.7375C102.833 66.4425 102.86 68.0925 102.86 69.6875C102.86 71.2275 102.86 72.905 102.86 74.72C102.805 75.71 102.778 76.7 102.778 77.69C102.778 78.68 102.778 79.6425 102.778 80.5775L107.893 80.495C109.213 80.495 110.67 80.4125 112.265 80.2475C113.86 80.0825 115.373 79.7525 116.803 79.2575C118.233 78.7625 119.443 78.0475 120.433 77.1125C121.478 76.1775 122.083 74.94 122.248 73.4Z" fill="#0A100D"/>
</svg>
