<svg width="165" height="198" viewBox="0 0 165 198" fill="none" xmlns="http://www.w3.org/2000/svg">
<path d="M27.6868 117.822C25.5621 117.449 23.4029 118.854 23.4241 121.131C23.4276 121.462 23.914 121.531 24.0009 121.208L24.0221 121.142C24.2595 120.501 25.2567 120.285 25.795 120.439C26.0741 120.519 26.3061 120.687 26.5222 120.871L26.6643 120.996C27.3218 121.573 27.7425 122.338 28.2223 123.057L28.3316 123.223C29.3876 124.829 30.4196 126.558 32.0296 127.637C34.3766 129.201 36.89 126.197 35.7009 123.965C34.8894 122.453 33.3272 121.301 31.9664 120.232L31.4212 119.801C30.3037 118.921 29.1135 118.07 27.6868 117.822Z" fill="#0A100D"/>
<path d="M71.8715 27.3582C84.3363 26.096 96.5508 27.1565 108.835 29.3508C109.774 29.5208 110.306 30.1366 110.503 30.8768C116.289 31.1411 122.082 31.5656 127.86 31.882C129.957 31.9967 131.146 34.0686 130.19 35.9396C129.999 36.3113 129.8 36.6729 129.599 37.0345L129.852 36.951C131.59 36.3933 133.468 36.1184 135.162 37.0035C137.318 38.1301 138.163 40.6157 137.686 42.9036C137.564 43.4877 137.36 44.0475 137.127 44.5937C137.6 44.5624 138.076 44.5729 138.549 44.6354C141.066 44.9692 142.937 46.8989 143.069 49.4684C143.263 53.3483 140.764 57.2845 137.819 60.0623C138.246 60.9423 138.41 61.9784 138.232 63.0285C137.877 65.1042 136.348 66.3472 134.576 67.158C135.315 69.5053 135.664 71.9593 135.458 74.4672C135.389 75.3045 134.657 75.996 133.884 76.1657C136.765 84.098 138.223 92.6144 139.272 100.913C140.02 106.817 140.388 112.756 140.433 118.704C140.455 121.39 140.411 124.079 140.298 126.765L140.252 127.772C140.113 130.676 140.106 133.725 139.585 136.597C141.365 139.625 142.081 143.384 142.384 146.777C142.759 150.977 142.165 155.31 140.84 159.305C135.84 174.401 120.75 183.928 105.594 186.404C91.5649 188.695 75.3311 185.611 67.1325 172.868C67.0038 172.666 67.2785 172.5 67.4384 172.632C73.304 177.402 80.1081 179.53 87.5004 180.566C100.282 182.353 114.648 179.321 124.905 171.283C129.828 167.424 133.378 161.805 134.94 155.758C135.736 152.667 136.011 149.444 135.697 146.263C135.377 143.036 133.949 140.283 133.048 137.233C132.746 136.204 133.066 135.248 133.695 134.566C133.872 132.091 134.29 129.594 134.449 127.126C134.626 124.32 134.735 121.514 134.773 118.704C134.846 112.877 134.602 107.039 134.112 101.237C133.215 90.6107 130.833 80.2428 129.436 69.7073C128.918 70.1715 128.176 70.362 127.399 69.9566L127.318 69.9124L126.894 69.6694C126.87 69.6694 126.842 69.6729 126.817 69.676C123.914 69.958 120.903 69.5547 118.122 68.6886C115.211 67.7849 112.51 66.3941 110.097 64.5409C109.638 66.8666 109.446 69.2171 109.443 71.5883C109.44 73.0695 107.872 73.8383 106.627 73.2055C101.109 70.4027 95.8381 67.173 90.8348 63.543L90.5613 64.9436L90.5596 64.9526C90.0669 67.4764 89.5742 70.0004 89.0786 72.5271C88.8529 73.6818 87.3818 74.1477 86.4396 73.5983C82.6918 71.418 79.4547 68.5637 76.8192 65.1699C76.2932 66.1761 75.7653 67.182 75.2341 68.1861L74.434 69.6899C73.6448 71.1676 72.5878 72.8021 70.8597 73.2746C69.0309 73.7753 67.5041 72.59 66.8891 70.9347C66.7013 70.4204 66.5275 69.8916 66.3675 69.3596C64.8095 72.9169 63.0505 76.3938 61.0617 79.7108C58.0785 84.686 54.4969 89.1191 50.9265 93.6669C49.8416 95.0476 47.985 93.7295 47.8354 92.3877C47.7485 91.5985 47.6755 90.8057 47.6126 90.0161C45.532 94.2149 43.361 98.3743 40.9956 102.413L41.3343 103.74C42.3102 107.662 43.1207 111.611 44.0018 115.553C44.2862 116.825 43.6103 118.643 42.1242 118.86C40.3489 119.118 38.6692 120.026 36.8508 119.401C34.8679 118.721 34.476 117.007 33.54 115.382C33.3533 115.059 33.136 114.761 32.9023 114.479L32.8429 114.556C32.6969 114.748 32.3492 114.539 32.4361 114.32L32.538 114.067C31.7337 113.214 30.7714 112.501 29.8866 111.735C27.7837 111.381 25.4183 111.769 23.9695 112.623C20.6699 114.57 19.1543 118.583 19.123 122.272C19.0847 126.59 20.423 131.444 22.683 135.137C23.6778 136.76 25.0407 138.227 26.8414 138.947C28.6289 139.663 30.5656 139.441 32.3839 140.115C33.587 140.564 34.3275 141.899 33.6009 143.109C33.5522 143.193 33.4966 143.269 33.4441 143.349L33.9851 144.067C34.3571 144.564 34.7448 145.097 35.1064 145.651C36.0312 146.715 37.0048 147.741 37.947 148.787C39.6886 150.716 41.3788 152.699 43.0926 154.656C44.7097 156.502 46.4203 158.237 48.1831 159.944C49.8486 161.561 51.9278 162.921 53.4577 164.645C54.9454 166.328 55.3491 169.266 52.901 170.24C50.1928 171.32 47.7951 168.789 45.9722 167.101L45.8953 167.03C42.5533 163.955 39.5353 160.44 37.1386 156.571C34.7646 158.187 31.3308 158.341 28.9669 156.726C27.7229 155.876 26.7684 154.447 26.3046 152.893C25.8672 152.991 25.4302 153.048 25.0039 153.042C24.7845 153.169 24.5644 153.293 24.3419 153.408C22.5787 154.326 20.4129 153.916 19.6063 151.965C18.8717 150.194 19.6286 148.182 20.2903 146.476L20.4268 146.123C20.8024 145.15 21.2161 144.09 21.7307 143.092C20.2982 142.014 19.074 140.675 18.0382 139.153C14.5578 134.024 12.8193 126.524 13.5877 120.405C14.0501 116.712 15.7848 112.888 18.6254 110.398L18.5215 110.127C17.7253 108.107 17.0017 106.08 16.5327 103.945C15.9833 101.449 15.7152 98.8618 15.4722 96.3201C14.9576 90.9517 15.0967 85.4617 15.7817 80.1141C17.0681 70.0484 20.3295 60.1669 26.1186 51.791C24.4771 49.8262 23.1771 47.514 23.8548 44.8545C24.1646 43.6337 24.87 42.4763 25.9343 41.777C26.5216 41.3914 27.2208 41.3323 27.8084 41.0124L27.985 40.9152C28.2432 40.7645 28.0457 40.7805 27.8918 40.0806C27.2834 37.2848 27.7875 34.5836 30.8645 33.6552C33.7608 32.7825 36.5006 34.6357 38.2148 36.8436C42.7 33.6618 48.6108 31.9967 53.8088 30.5816C59.7196 28.9784 65.7831 27.9774 71.8715 27.3582Z" fill="#0A100D"/>
<g clip-path="url(#clip0_30_31)">
<path d="M100.054 120.032C104.321 117.588 115.027 115.091 115.705 122.77C116.017 126.303 113.39 129.231 110.322 130.537L110.207 130.586C107.33 131.769 102.23 133.104 99.7403 130.539C97.6681 128.405 100.417 124.577 102.992 126.326C104.315 127.224 107.1 126.562 108.577 126.135L108.669 126.108C110.263 125.639 112.387 124.141 111.728 122.179C111.145 120.443 108.664 120.126 107.11 120.069C104.791 119.986 102.534 120.525 100.235 120.7C99.8714 120.728 99.7591 120.201 100.054 120.032Z" fill="#0A100D"/>
<path fill-rule="evenodd" clip-rule="evenodd" d="M89.8436 158.421H89.845C89.8462 158.421 89.8475 158.421 89.8487 158.421C89.847 158.421 89.8453 158.421 89.8436 158.421ZM89.0908 148.13L89.0918 148.13C89.457 148.116 89.8221 148.102 90.1873 148.088C89.8218 148.102 89.4563 148.116 89.0908 148.13ZM69.0137 96.2427C72.4287 92.7581 81.3338 89.3861 83.6699 95.8209C84.115 97.0465 83.1675 98.6991 81.8915 98.9533C80.7385 99.1827 79.6573 99.0094 78.571 98.8353C77.6885 98.6938 76.8027 98.5518 75.8723 98.6247C74.1919 98.7572 72.4391 99.3187 71.0956 100.36C68.7843 102.151 67.5928 104.711 66.4004 107.273C65.6732 108.835 64.9456 110.399 63.9634 111.789C63.8372 111.967 63.5921 111.892 63.5688 111.682C62.9784 106.339 65.2732 100.059 69.0137 96.2427ZM113.551 92.8123C115.818 92.012 118.384 92.0805 120.662 92.7904C122.957 93.506 125.064 94.8648 126.687 96.6401C127.423 97.4461 128.105 98.3355 128.651 99.2822C128.798 99.5363 128.949 99.9276 129.105 100.332C129.257 100.726 129.414 101.133 129.577 101.438C131.362 102.468 132.125 104.817 130.527 106.488L130.455 106.561L130.241 106.773C129.382 107.624 128.086 107.992 126.913 107.653C124.715 107.017 124.135 105.463 123.47 103.687C123.341 103.342 123.209 102.989 123.062 102.632C122.461 101.183 121.433 99.9008 120.187 98.9589C117.241 96.7336 112.41 96.0247 108.863 97.0733C108.675 97.1293 108.453 96.8887 108.587 96.7142C108.754 96.4983 108.903 96.292 109.047 96.0931C109.483 95.4899 109.87 94.9549 110.547 94.4267C111.46 93.7139 112.457 93.199 113.551 92.8123Z" fill="#0A100D"/>
<path d="M74.7532 109.04C78.9676 107.634 83.5145 109.881 85.5551 113.606C86.271 113.814 86.9859 114.365 86.8864 115.21C86.7428 116.426 86.5266 117.192 85.6838 118.114C84.3653 119.556 81.8963 118.819 81.3487 117.044L81.3254 116.963C80.703 114.669 78.1773 113.155 75.8766 113.958C74.2839 114.514 73.6624 115.738 73.028 116.986C72.5919 117.845 72.1497 118.715 71.3816 119.389C71.1601 119.583 70.8945 119.614 70.6289 119.486C68.6265 118.518 68.9864 115.606 69.7002 113.939C70.6365 111.752 72.4563 109.806 74.7532 109.04Z" fill="#0A100D"/>
<path d="M117.729 107.684C123.521 107.413 127.123 113.736 125.791 118.917C125.561 119.811 124.561 120.689 123.596 120.588L123.353 120.566C123.229 120.554 123.105 120.538 122.991 120.507C122.074 120.253 121.253 119.3 121.32 118.311L121.337 118.024C121.472 115.576 121.207 112.756 118.298 112.164C115.832 111.661 114.454 114.035 114.425 116.221C114.42 116.609 113.984 116.88 113.64 116.671C111.857 115.586 111.548 113.427 112.229 111.568C113.093 109.212 115.253 107.8 117.729 107.684Z" fill="#0A100D"/>
<path fill-rule="evenodd" clip-rule="evenodd" d="M96.1122 136.442C99.1886 136.927 102.269 137.289 105.382 137.424C106.008 137.451 106.635 137.467 107.261 137.48C107.319 136.928 107.628 136.422 108.297 136.119C109.668 135.497 110.766 135.217 112.271 135.277C113.649 135.331 115.032 135.473 116.389 135.721C118.853 136.173 121.328 137.198 123.13 138.979C127.302 143.1 126.667 149.72 123.444 154.209C116.785 163.485 104.631 163.915 94.2217 163.794L93.2611 163.781C92.2003 163.766 91.0883 163.771 89.944 163.775C80.8638 163.81 69.7413 163.852 65.9173 154.276C64.3338 150.31 64.5538 145.714 66.4925 141.911C68.8049 137.375 73.6726 135.012 78.5479 134.42C82.9505 133.886 87.2532 134.742 91.5497 135.597C93.0699 135.899 94.5893 136.201 96.1122 136.442ZM108.069 149.868L108.153 149.864L108.126 150.256L108.102 150.589C108.057 151.216 108.012 151.843 107.97 152.47C107.941 152.902 107.923 153.343 107.905 153.789C107.864 154.787 107.823 155.806 107.655 156.78C107.411 156.984 107.227 157.282 107.164 157.724L107.157 157.799C103.697 158.416 100.044 158.482 96.649 158.455C96.6111 158.373 96.5728 158.29 96.52 158.208C96.3684 157.971 96.1647 157.807 95.9404 157.706L95.9616 157.56C96.0013 157.309 95.9181 156.961 95.843 156.647C95.8077 156.499 95.7742 156.359 95.7561 156.24C95.6226 155.361 95.4943 154.48 95.3743 153.598C95.2217 152.478 95.0882 151.355 94.9575 150.232C99.3297 150.155 103.699 150.036 108.069 149.868ZM82.1682 150.348C85.3173 150.386 88.4685 150.345 91.6182 150.292C91.6432 151.669 91.6874 153.046 91.7503 154.425L91.7566 154.592C91.7659 154.895 91.7655 155.229 91.765 155.581C91.7639 156.475 91.7626 157.485 91.9211 158.41C91.4465 158.411 90.9708 158.413 90.4941 158.416C90.2796 158.418 90.0649 158.419 89.85 158.421H89.8487L89.845 158.421H89.8436H89.8422H89.8408H89.8394C86.4058 158.445 82.9356 158.47 79.5728 157.994C79.4478 157.977 79.3231 157.956 79.1981 157.936L79.137 157.926C80.4315 157.969 81.9273 156.889 81.6422 155.19C81.4568 154.083 81.2458 152.983 81.035 151.884C80.9353 151.365 80.8357 150.845 80.7388 150.326L82.1682 150.348ZM70.8641 152.428C70.5459 151.661 70.3332 150.836 70.2239 149.994C72.4704 150.219 74.7585 150.268 77.0314 150.289C77.039 152.319 77.1407 154.352 77.4234 156.351C77.5369 157.155 77.9862 157.624 78.552 157.82C75.2907 157.183 72.2085 155.67 70.8641 152.428ZM118.714 151.537C116.702 154.157 114.019 155.795 111.026 156.817C110.842 155.862 110.788 154.864 110.735 153.884C110.715 153.524 110.696 153.166 110.67 152.813C110.61 151.991 110.553 151.168 110.497 150.345L110.497 150.344L110.457 149.768L110.96 149.747C112.28 149.694 113.6 149.641 114.92 149.581C115.407 149.559 115.922 149.56 116.448 149.561C117.637 149.564 118.885 149.567 120.006 149.302C119.664 150.118 119.215 150.884 118.714 151.537ZM71.2509 144.19C72.621 141.725 75.1703 140.377 77.8641 139.739C77.2503 141.642 77.1813 143.978 77.1239 145.925L77.1183 146.112C77.116 146.19 77.1137 146.266 77.1113 146.342L77.0758 147.402C77.0634 147.816 77.0536 148.231 77.0459 148.646C74.7412 148.729 72.4253 148.829 70.1487 149.094C70.08 147.386 70.4377 145.652 71.2509 144.19ZM90.6207 139.853L91.8063 139.986C91.6282 141.245 91.6309 142.57 91.6336 143.84C91.6347 144.364 91.6358 144.879 91.6241 145.375L91.6109 146.04C91.6001 146.704 91.5967 147.369 91.597 148.033C91.1271 148.052 90.6572 148.07 90.1873 148.088C89.8221 148.102 89.457 148.116 89.0918 148.13L89.0908 148.13L89.0897 148.13L89.0887 148.13L89.0877 148.13L89.0871 148.13C86.3865 148.233 83.6861 148.336 80.9875 148.483L80.4162 148.509C80.2847 147.715 80.166 146.918 80.072 146.113C79.9926 145.434 79.9443 144.713 79.895 143.977C79.7934 142.461 79.6875 140.88 79.2956 139.465C79.7806 139.395 80.2646 139.342 80.7413 139.31C83.939 139.09 87.135 139.455 90.3326 139.82L90.6207 139.853ZM97.9424 140.396C101.331 140.392 104.896 140.274 108.346 139.717C108.49 139.82 108.642 139.911 108.802 139.977L108.939 140.026C108.757 141.624 108.628 143.228 108.511 144.832L108.339 147.239L107.726 147.272C103.379 147.493 99.0321 147.705 94.6845 147.903L94.5364 146.651C94.3706 145.219 94.2179 143.787 94.0844 142.353C94.0622 142.114 94.0422 141.873 94.0222 141.631C93.9827 141.154 93.9429 140.672 93.8845 140.195C95.2363 140.315 96.5892 140.398 97.9424 140.396ZM113.145 146.981L110.279 147.134C110.239 146.475 110.201 145.815 110.163 145.156L110.163 145.154C110.071 143.54 109.979 141.925 109.844 140.314C110.89 140.582 111.987 140.667 113.084 140.753C115.092 140.91 117.103 141.067 118.813 142.34C120.319 143.461 120.796 145.087 120.656 146.756C119.33 146.377 117.718 146.565 116.225 146.739C115.65 146.806 115.093 146.871 114.577 146.901C114.1 146.928 113.622 146.954 113.145 146.981Z" fill="#0A100D"/>
</g>
<defs>
<clipPath id="clip0_30_31">
<rect width="100.484" height="101.874" fill="white" transform="translate(50.0674 61.8895)"/>
</clipPath>
</defs>
</svg>
