<svg width="320" height="384" viewBox="0 0 320 384" fill="none" xmlns="http://www.w3.org/2000/svg">
<path d="M53.7959 228.925C49.6675 228.202 45.4722 230.931 45.5135 235.356C45.5202 235.998 46.4653 236.133 46.6342 235.505L46.6753 235.377C47.1366 234.132 49.0741 233.711 50.1201 234.011C50.6623 234.166 51.1132 234.493 51.5331 234.851L51.809 235.092C53.0865 236.214 53.9039 237.7 54.8362 239.098L55.0487 239.421C57.1005 242.541 59.1055 245.899 62.2338 247.996C66.7939 251.036 71.6775 245.2 69.3671 240.862C67.7903 237.924 64.755 235.686 62.1109 233.61L61.0516 232.772C58.8804 231.062 56.5679 229.408 53.7959 228.925Z" fill="#0A100D"/>
<path d="M139.646 53.1565C163.865 50.7042 187.597 52.7647 211.465 57.0282C213.289 57.3585 214.323 58.555 214.707 59.9932C225.949 60.5067 237.204 61.3315 248.431 61.9463C252.505 62.1692 254.815 66.1949 252.957 69.8301C252.587 70.5523 252.201 71.2549 251.809 71.9574L252.301 71.7952C255.679 70.7116 259.327 70.1775 262.618 71.8973C266.806 74.0861 268.449 78.9157 267.523 83.361C267.286 84.496 266.888 85.5836 266.436 86.6449C267.354 86.5841 268.28 86.6044 269.199 86.726C274.09 87.3745 277.724 91.1239 277.981 96.1163C278.359 103.655 273.502 111.303 267.78 116.7C268.61 118.41 268.928 120.423 268.583 122.463C267.894 126.496 264.923 128.912 261.479 130.487C262.915 135.048 263.594 139.816 263.194 144.689C263.06 146.315 261.637 147.659 260.135 147.989C265.733 163.401 268.566 179.948 270.604 196.072C272.056 207.544 272.772 219.082 272.859 230.64C272.902 235.859 272.816 241.083 272.597 246.302L272.509 248.259C272.239 253.901 272.225 259.825 271.212 265.406C274.671 271.289 276.062 278.593 276.65 285.185C277.38 293.346 276.224 301.764 273.65 309.527C263.935 338.859 234.617 357.369 205.168 362.18C177.91 366.632 146.368 360.64 130.438 335.88C130.188 335.488 130.722 335.164 131.032 335.421C142.429 344.689 155.649 348.823 170.012 350.837C194.846 354.31 222.76 348.418 242.689 332.8C252.255 325.301 259.152 314.384 262.186 302.635C263.733 296.63 264.267 290.367 263.658 284.186C263.037 277.917 260.261 272.567 258.511 266.642C257.923 264.642 258.545 262.784 259.768 261.46C260.112 256.65 260.923 251.799 261.233 247.003C261.578 241.551 261.788 236.099 261.862 230.64C262.004 219.318 261.531 207.975 260.578 196.701C258.835 176.055 254.208 155.91 251.492 135.44C250.487 136.342 249.045 136.712 247.535 135.925L247.378 135.839L246.554 135.367C246.506 135.367 246.452 135.373 246.404 135.379C240.764 135.927 234.914 135.144 229.509 133.461C223.854 131.705 218.606 129.003 213.917 125.402C213.026 129.921 212.653 134.488 212.647 139.095C212.64 141.973 209.594 143.467 207.175 142.237C196.454 136.791 186.212 130.516 176.491 123.463L175.96 126.184L175.956 126.202C174.999 131.105 174.042 136.01 173.079 140.919C172.64 143.163 169.782 144.068 167.951 143C160.669 138.764 154.38 133.218 149.259 126.624C148.237 128.579 147.212 130.534 146.179 132.485L144.625 135.406C143.091 138.278 141.038 141.453 137.68 142.371C134.127 143.344 131.16 141.041 129.965 137.825C129.6 136.826 129.263 135.798 128.952 134.765C125.925 141.676 122.507 148.432 118.643 154.877C112.846 164.543 105.887 173.157 98.95 181.993C96.8423 184.676 93.2347 182.115 92.9443 179.508C92.7754 177.974 92.6335 176.434 92.5112 174.9C88.4686 183.058 84.2504 191.14 79.6546 198.987L80.3126 201.566C82.2089 209.185 83.7836 216.858 85.4955 224.517C86.0481 226.988 84.7348 230.522 81.8475 230.942C78.398 231.445 75.1344 233.208 71.6012 231.995C67.7485 230.672 66.9871 227.342 65.1685 224.186C64.8057 223.557 64.3835 222.98 63.9295 222.431L63.814 222.581C63.5302 222.953 62.8547 222.548 63.0236 222.122L63.2215 221.63C61.6589 219.972 59.7892 218.588 58.0699 217.1C53.9841 216.412 49.3882 217.166 46.5731 218.826C40.162 222.608 37.2173 230.404 37.1565 237.572C37.0822 245.963 39.6824 255.394 44.0736 262.568C46.0063 265.723 48.6545 268.573 52.1533 269.972C55.6264 271.363 59.3892 270.932 62.9222 272.242C65.2597 273.114 66.6986 275.708 65.2867 278.058C65.1921 278.221 65.084 278.369 64.982 278.525L66.0332 279.919C66.7561 280.885 67.5093 281.92 68.2119 282.997C70.0089 285.064 71.9005 287.057 73.7312 289.091C77.1151 292.84 80.3991 296.691 83.7289 300.494C86.8709 304.082 90.1947 307.452 93.6198 310.769C96.8558 313.911 100.896 316.552 103.868 319.903C106.759 323.173 107.543 328.881 102.787 330.773C97.5246 332.871 92.8659 327.953 89.3239 324.674L89.1746 324.537C82.6811 318.562 76.8172 311.733 72.1606 304.215C67.5478 307.355 60.876 307.655 56.283 304.515C53.8658 302.864 52.0114 300.088 51.1102 297.068C50.2604 297.258 49.4112 297.37 48.5829 297.357C48.1567 297.604 47.729 297.845 47.2967 298.069C43.8709 299.852 39.6628 299.055 38.0955 295.265C36.6683 291.823 38.1389 287.915 39.4245 284.6L39.6898 283.915C40.4194 282.024 41.2234 279.964 42.2232 278.025C39.4399 275.931 37.0612 273.329 35.0487 270.371C28.2863 260.406 24.9085 245.834 26.4015 233.945C27.3 226.77 30.6704 219.339 36.1897 214.501L35.9877 213.974C34.4407 210.05 33.0349 206.111 32.1235 201.963C31.0561 197.113 30.5353 192.087 30.0631 187.148C29.0632 176.718 29.3334 166.051 30.6643 155.66C33.1639 136.103 39.5007 116.903 50.7488 100.629C47.5595 96.8115 45.0335 92.319 46.3502 87.1516C46.9521 84.7797 48.3228 82.5307 50.3907 81.1721C51.5318 80.4229 52.8903 80.3081 54.032 79.6866L54.3753 79.4975C54.8768 79.2049 54.4932 79.2359 54.1942 77.876C53.0119 72.4438 53.9915 67.1954 59.97 65.3916C65.5975 63.696 70.9209 67.2967 74.2514 71.5866C82.9662 65.4045 94.4508 62.1692 104.55 59.4197C116.035 56.3046 127.816 54.3597 139.646 53.1565Z" fill="#0A100D"/>
<g clip-path="url(#clip0_7_143)">
<path d="M194.404 233.22C202.695 228.472 223.496 223.619 224.813 238.539C225.419 245.405 220.315 251.093 214.354 253.632L214.131 253.726C208.541 256.024 198.632 258.62 193.794 253.636C189.768 249.488 195.108 242.051 200.112 245.449C202.683 247.194 208.095 245.908 210.964 245.077L211.143 245.025C214.24 244.115 218.367 241.203 217.087 237.391C215.954 234.018 211.133 233.402 208.114 233.293C203.608 233.131 199.222 234.178 194.756 234.518C194.049 234.572 193.831 233.548 194.404 233.22Z" fill="#0A100D"/>
<path fill-rule="evenodd" clip-rule="evenodd" d="M174.565 307.809H174.568C174.57 307.809 174.573 307.809 174.575 307.809C174.572 307.809 174.568 307.809 174.565 307.809ZM173.102 287.814L173.104 287.814C173.814 287.787 174.523 287.76 175.233 287.732C174.523 287.76 173.813 287.787 173.102 287.814ZM134.093 186.998C140.728 180.227 158.031 173.676 162.57 186.178C163.435 188.56 161.594 191.771 159.114 192.264C156.874 192.71 154.773 192.374 152.663 192.035C150.948 191.76 149.227 191.484 147.419 191.626C144.154 191.883 140.749 192.974 138.138 194.997C133.647 198.477 131.332 203.451 129.015 208.429C127.603 211.465 126.189 214.502 124.28 217.203C124.035 217.551 123.559 217.405 123.514 216.995C122.367 206.615 126.825 194.413 134.093 186.998ZM220.629 180.333C225.032 178.778 230.019 178.911 234.445 180.29C238.904 181.68 242.997 184.321 246.15 187.77C247.581 189.336 248.905 191.064 249.967 192.904C250.253 193.397 250.546 194.158 250.849 194.943C251.145 195.709 251.449 196.5 251.766 197.091C255.235 199.094 256.717 203.658 253.612 206.904L253.472 207.046L253.056 207.458C251.387 209.111 248.87 209.827 246.591 209.167C242.32 207.931 241.192 204.914 239.901 201.461C239.65 200.792 239.394 200.105 239.107 199.413C237.941 196.597 235.943 194.105 233.521 192.275C227.797 187.952 218.412 186.574 211.52 188.612C211.154 188.721 210.723 188.253 210.984 187.914C211.308 187.494 211.598 187.094 211.877 186.707C212.724 185.535 213.476 184.496 214.791 183.469C216.566 182.084 218.502 181.084 220.629 180.333Z" fill="#0A100D"/>
<path d="M145.245 211.863C153.433 209.131 162.268 213.496 166.233 220.735C167.624 221.138 169.013 222.21 168.819 223.852C168.54 226.213 168.12 227.702 166.483 229.493C163.921 232.296 159.124 230.863 158.06 227.414L158.014 227.258C156.805 222.8 151.898 219.858 147.428 221.419C144.333 222.499 143.125 224.876 141.893 227.302C141.045 228.97 140.186 230.661 138.694 231.97C138.264 232.348 137.747 232.408 137.231 232.158C133.341 230.278 134.04 224.62 135.427 221.381C137.246 217.131 140.782 213.351 145.245 211.863Z" fill="#0A100D"/>
<path d="M228.747 209.228C239.999 208.702 246.998 220.987 244.411 231.054C243.964 232.791 242.021 234.496 240.145 234.301L239.672 234.257C239.433 234.234 239.191 234.204 238.97 234.143C237.189 233.649 235.593 231.797 235.722 229.877L235.757 229.318C236.019 224.562 235.504 219.084 229.852 217.932C225.059 216.955 222.383 221.568 222.327 225.815C222.316 226.569 221.469 227.095 220.802 226.69C217.337 224.581 216.737 220.387 218.061 216.774C219.738 212.198 223.936 209.453 228.747 209.228Z" fill="#0A100D"/>
<path fill-rule="evenodd" clip-rule="evenodd" d="M186.745 265.104C192.722 266.046 198.707 266.751 204.755 267.012C205.972 267.065 207.19 267.096 208.407 267.121C208.52 266.049 209.12 265.066 210.42 264.476C213.084 263.268 215.216 262.724 218.142 262.84C220.819 262.946 223.506 263.221 226.142 263.704C230.93 264.581 235.739 266.574 239.241 270.034C247.346 278.041 246.112 290.903 239.849 299.626C226.911 317.648 203.297 318.484 183.072 318.249L181.205 318.224C179.144 318.195 176.984 318.203 174.76 318.212C157.118 318.279 135.507 318.362 128.077 299.755C125 292.05 125.428 283.12 129.194 275.731C133.687 266.917 143.145 262.326 152.618 261.177C161.172 260.138 169.532 261.801 177.88 263.462C180.834 264.049 183.786 264.636 186.745 265.104ZM209.976 291.19L210.141 291.184L210.087 291.946L210.041 292.592C209.954 293.81 209.867 295.028 209.784 296.246C209.728 297.085 209.693 297.944 209.658 298.81C209.579 300.749 209.499 302.728 209.172 304.621C208.698 305.018 208.341 305.596 208.218 306.455L208.205 306.601C201.482 307.8 194.383 307.928 187.788 307.876C187.714 307.716 187.64 307.555 187.537 307.395C187.243 306.934 186.847 306.616 186.411 306.419L186.452 306.136C186.53 305.648 186.368 304.973 186.222 304.362C186.153 304.076 186.088 303.803 186.053 303.572C185.794 301.863 185.544 300.152 185.311 298.439C185.015 296.262 184.755 294.079 184.501 291.898C192.996 291.748 201.486 291.517 209.976 291.19ZM159.652 292.123C165.771 292.198 171.893 292.118 178.013 292.014C178.062 294.69 178.148 297.366 178.27 300.045L178.282 300.369C178.3 300.959 178.299 301.607 178.298 302.291C178.296 304.028 178.294 305.991 178.602 307.788C177.68 307.789 176.755 307.794 175.829 307.8C175.412 307.803 174.995 307.806 174.578 307.809H174.575L174.568 307.809H174.565H174.562H174.56H174.557C167.886 307.856 161.143 307.904 154.609 306.98C154.366 306.947 154.124 306.907 153.881 306.866L153.762 306.847C156.278 306.932 159.184 304.833 158.63 301.531C158.27 299.38 157.86 297.243 157.45 295.108C157.256 294.099 157.063 293.09 156.875 292.08L159.652 292.123ZM137.688 296.165C137.07 294.674 136.657 293.073 136.445 291.436C140.809 291.873 145.255 291.968 149.671 292.009C149.686 295.953 149.884 299.903 150.433 303.788C150.653 305.35 151.526 306.262 152.626 306.641C146.289 305.404 140.3 302.464 137.688 296.165ZM230.66 294.434C226.75 299.524 221.538 302.707 215.722 304.692C215.365 302.837 215.26 300.898 215.156 298.994C215.118 298.294 215.081 297.598 215.031 296.912C214.913 295.315 214.804 293.717 214.694 292.118L214.694 292.116L214.617 290.996L215.594 290.956C218.159 290.853 220.724 290.749 223.288 290.633C224.235 290.59 225.235 290.592 226.258 290.595C228.567 290.6 230.992 290.605 233.171 290.091C232.506 291.677 231.634 293.165 230.66 294.434ZM138.44 280.158C141.102 275.369 146.055 272.751 151.289 271.511C150.097 275.208 149.963 279.748 149.851 283.529L149.84 283.894C149.836 284.044 149.831 284.192 149.827 284.34L149.758 286.4C149.733 287.204 149.714 288.009 149.7 288.816C145.221 288.977 140.722 289.173 136.298 289.687C136.165 286.368 136.86 283 138.44 280.158ZM176.075 271.732L178.379 271.991C178.032 274.436 178.038 277.012 178.043 279.478C178.045 280.497 178.047 281.497 178.025 282.461L177.999 283.753C177.978 285.044 177.971 286.335 177.972 287.626C177.059 287.662 176.146 287.697 175.233 287.732C174.523 287.76 173.814 287.787 173.104 287.814L173.102 287.814L173.1 287.814L173.098 287.814L173.096 287.814L173.095 287.814C167.848 288.014 162.601 288.215 157.358 288.499L156.248 288.551C155.992 287.007 155.762 285.458 155.579 283.896C155.425 282.576 155.331 281.175 155.235 279.746C155.038 276.799 154.832 273.727 154.07 270.979C155.013 270.841 155.953 270.74 156.879 270.676C163.093 270.25 169.302 270.959 175.515 271.668L176.075 271.732ZM190.301 272.787C196.885 272.779 203.812 272.549 210.515 271.467C210.795 271.669 211.09 271.845 211.402 271.973L211.666 272.069C211.313 275.172 211.063 278.289 210.835 281.407L210.502 286.083L209.31 286.147C200.865 286.576 192.418 286.989 183.971 287.372L183.683 284.939C183.361 282.159 183.064 279.376 182.805 276.589C182.762 276.125 182.723 275.657 182.684 275.187C182.607 274.259 182.53 273.324 182.416 272.396C185.043 272.629 187.672 272.79 190.301 272.787ZM219.839 285.581L214.271 285.878C214.193 284.597 214.119 283.316 214.046 282.035L214.046 282.033C213.867 278.895 213.688 275.757 213.426 272.627C215.458 273.148 217.588 273.314 219.721 273.481C223.622 273.785 227.53 274.091 230.852 276.564C233.778 278.743 234.705 281.901 234.433 285.143C231.857 284.408 228.724 284.773 225.823 285.111C224.707 285.241 223.625 285.367 222.622 285.425C221.694 285.479 220.767 285.53 219.839 285.581Z" fill="#0A100D"/>
</g>
<defs>
<clipPath id="clip0_7_143">
<rect width="195.238" height="197.94" fill="white" transform="translate(97.2808 120.25)"/>
</clipPath>
</defs>
</svg>
