<svg xmlns="http://www.w3.org/2000/svg" viewBox="0 0 1920 919" preserveAspectRatio="xMidYMid" width="1920" height="919" xmlns:xlink="http://www.w3.org/1999/xlink" style="shape-rendering:auto;display:block;background-position-x:0%;background-position-y:0%;background-size:auto;background-origin:padding-box;background-clip:border-box;background:scroll rgb(255, 255, 255) none  repeat;width:1920px;height:919px;;animation:none"><g><defs><linearGradient gradientUnits="userSpaceOnUse" y2="0" y1="0" x2="1920" x1="935" id="ldbk-photon-7qd8miu1iyc-lg"><stop offset="0" stop-color="#1d3f72"></stop>

    
<stop offset="1" stop-color="#34ffef"></stop></linearGradient>

  
<mask id="ldbk-photon-7qd8miu1iyc-mask"><g><path fill="#fff" d="M2220 -0.5 L946.9307137707939 -0.5 A15 15 0 0 1 946.9307137707939 30.5 L2220 30.5" transform="matrix(1,0,0,1,29.79275131225586,0)" style="fill:rgb(255, 255, 255);transform:matrix(1, 0, 0, 1, 29.7928, 0);;animation:none"></path>
<path fill="#000" d="M1973.7293902956778 -0.5 L1997.4587805913557 -0.5 A15 15 0 0 1 1997.4587805913557 30.5 L1973.7293902956778 30.5 A15 15 0 0 1 1973.7293902956778 -0.5" transform="matrix(1,0,0,1,0,0)" opacity="1" style="fill:rgb(0, 0, 0);transform:matrix(1, 0, 0, 1, 0, 0);;animation:none"></path>
<path fill="#fff" d="M2220 29.5 L897.375899709693 29.5 A15 15 0 0 0 897.375899709693 60.5 L2220 60.5" transform="matrix(1,0,0,1,-19.38580894470215,0)" style="fill:rgb(255, 255, 255);transform:matrix(1, 0, 0, 1, -19.3858, 0);;animation:none"></path>
<path fill="#fff" d="M1014.5158435400564 29.5 L1040.4253801113719 29.5 A15 15 0 0 1 1040.4253801113719 60.5 L1014.5158435400564 60.5 A15 15 0 0 1 1014.5158435400564 29.5" transform="matrix(1,0,0,1,0,0)" opacity="1" style="fill:rgb(255, 255, 255);transform:matrix(1, 0, 0, 1, 0, 0);;animation:none"></path>
<path fill="#fff" d="M2220 59.5 L919.8056113216749 59.5 A15 15 0 0 1 919.8056113216749 90.5 L2220 90.5" transform="matrix(1,0,0,1,26.5521240234375,0)" style="fill:rgb(255, 255, 255);transform:matrix(1, 0, 0, 1, 26.5521, 0);;animation:none"></path>
<path fill="#000" d="M1963.5636559182376 59.5 L1977.1273118364752 59.5 A15 15 0 0 1 1977.1273118364752 90.5 L1963.5636559182376 90.5 A15 15 0 0 1 1963.5636559182376 59.5" transform="matrix(1,0,0,1,-1063.011474609375,0)" opacity="0.599079" style="fill:rgb(0, 0, 0);transform:matrix(1, 0, 0, 1, -1063.01, 0);opacity:0.599079;;animation:none"></path>
<path fill="#fff" d="M2220 89.5 L890.0357538470034 89.5 A15 15 0 0 0 890.0357538470034 120.5 L2220 120.5" transform="matrix(1,0,0,1,-9.999408721923828,0)" style="fill:rgb(255, 255, 255);transform:matrix(1, 0, 0, 1, -9.99941, 0);;animation:none"></path>
<path fill="#fff" d="M990.6672963596171 89.5 L1030.4527183208534 89.5 A15 15 0 0 1 1030.4527183208534 120.5 L990.6672963596171 120.5 A15 15 0 0 1 990.6672963596171 89.5" transform="matrix(1,0,0,1,0,0)" opacity="1" style="fill:rgb(255, 255, 255);transform:matrix(1, 0, 0, 1, 0, 0);;animation:none"></path>
<path fill="#fff" d="M2220 119.5 L931.9215602130554 119.5 A15 15 0 0 1 931.9215602130554 150.5 L2220 150.5" transform="matrix(1,0,0,1,25.96453857421875,0)" style="fill:rgb(255, 255, 255);transform:matrix(1, 0, 0, 1, 25.9645, 0);;animation:none"></path>
<path fill="#000" d="M1969.9928505900918 119.5 L1989.9857011801837 119.5 A15 15 0 0 1 1989.9857011801837 150.5 L1969.9928505900918 150.5 A15 15 0 0 1 1969.9928505900918 119.5" transform="matrix(1,0,0,1,-656.2073974609375,0)" opacity="0.875576" style="fill:rgb(0, 0, 0);transform:matrix(1, 0, 0, 1, -656.207, 0);opacity:0.875576;;animation:none"></path>
<path fill="#fff" d="M2220 149.5 L893.7828789561313 149.5 A15 15 0 0 0 893.7828789561313 180.5 L2220 180.5" transform="matrix(1,0,0,1,-45.61949157714844,0)" style="fill:rgb(255, 255, 255);transform:matrix(1, 0, 0, 1, -45.6195, 0);;animation:none"></path>
<path fill="#fff" d="M958.5961955953194 149.5 L996.693930334952 149.5 A15 15 0 0 1 996.693930334952 180.5 L958.5961955953194 180.5 A15 15 0 0 1 958.5961955953194 149.5" transform="matrix(1,0,0,1,0,0)" opacity="0.78341" style="fill:rgb(255, 255, 255);transform:matrix(1, 0, 0, 1, 0, 0);opacity:0.78341;;animation:none"></path>
<path fill="#fff" d="M2220 179.5 L923.1607102209509 179.5 A15 15 0 0 1 923.1607102209509 210.5 L2220 210.5" transform="matrix(1,0,0,1,1.440354585647583,0)" style="fill:rgb(255, 255, 255);transform:matrix(1, 0, 0, 1, 1.44035, 0);;animation:none"></path>
<path fill="#000" d="M1974.197427028678 179.5 L1998.394854057356 179.5 A15 15 0 0 1 1998.394854057356 210.5 L1974.197427028678 210.5 A15 15 0 0 1 1974.197427028678 179.5" transform="matrix(1,0,0,1,-1364.516357421875,0)" opacity="0.599078" style="fill:rgb(0, 0, 0);transform:matrix(1, 0, 0, 1, -1364.52, 0);opacity:0.599078;;animation:none"></path>
<path fill="#fff" d="M2220 209.5 L890.7318959359832 209.5 A15 15 0 0 0 890.7318959359832 240.5 L2220 240.5" transform="matrix(1,0,0,1,-3.728078842163086,0)" style="fill:rgb(255, 255, 255);transform:matrix(1, 0, 0, 1, -3.72808, 0);;animation:none"></path>
<path fill="#fff" d="M966.4260035511871 209.5 L976.5610288170122 209.5 A15 15 0 0 1 976.5610288170122 240.5 L966.4260035511871 240.5 A15 15 0 0 1 966.4260035511871 209.5" transform="matrix(1,0,0,1,0,0)" opacity="0.921659" style="fill:rgb(255, 255, 255);transform:matrix(1, 0, 0, 1, 0, 0);opacity:0.921659;;animation:none"></path>
<path fill="#fff" d="M2220 239.5 L940.9138529660461 239.5 A15 15 0 0 1 940.9138529660461 270.5 L2220 270.5" transform="matrix(1,0,0,1,0.507766604423523,0)" style="fill:rgb(255, 255, 255);transform:matrix(1, 0, 0, 1, 0.507767, 0);;animation:none"></path>
<path fill="#000" d="M1984.9481493477 239.5 L2019.8962986954002 239.5 A15 15 0 0 1 2019.8962986954002 270.5 L1984.9481493477 270.5 A15 15 0 0 1 1984.9481493477 239.5" transform="matrix(1,0,0,1,-1022.5716552734375,0)" opacity="0.645161" style="fill:rgb(0, 0, 0);transform:matrix(1, 0, 0, 1, -1022.57, 0);opacity:0.645161;;animation:none"></path>
<path fill="#fff" d="M2220 269.5 L915.4466445585863 269.5 A15 15 0 0 0 915.4466445585863 300.5 L2220 300.5" transform="matrix(1,0,0,1,-23.184297561645508,0)" style="fill:rgb(255, 255, 255);transform:matrix(1, 0, 0, 1, -23.1843, 0);;animation:none"></path>
<path fill="#fff" d="M967.2339143600502 269.5 L979.2839628131212 269.5 A15 15 0 0 1 979.2839628131212 300.5 L967.2339143600502 300.5 A15 15 0 0 1 967.2339143600502 269.5" transform="matrix(1,0,0,1,0,0)" opacity="0.184332" style="fill:rgb(255, 255, 255);transform:matrix(1, 0, 0, 1, 0, 0);opacity:0.184332;;animation:none"></path>
<path fill="#fff" d="M2220 299.5 L928.8565791394376 299.5 A15 15 0 0 1 928.8565791394376 330.5 L2220 330.5" transform="matrix(1,0,0,1,41.38840866088867,0)" style="fill:rgb(255, 255, 255);transform:matrix(1, 0, 0, 1, 41.3884, 0);;animation:none"></path>
<path fill="#000" d="M1988.1750049033174 299.5 L2026.3500098066347 299.5 A15 15 0 0 1 2026.3500098066347 330.5 L1988.1750049033174 330.5 A15 15 0 0 1 1988.1750049033174 299.5" transform="matrix(1,0,0,1,-1597.8326416015625,0)" opacity="0.138249" style="fill:rgb(0, 0, 0);transform:matrix(1, 0, 0, 1, -1597.83, 0);opacity:0.138249;;animation:none"></path>
<path fill="#fff" d="M2220 329.5 L920.7934346524828 329.5 A15 15 0 0 0 920.7934346524828 360.5 L2220 360.5" transform="matrix(1,0,0,1,-27.79682159423828,0)" style="fill:rgb(255, 255, 255);transform:matrix(1, 0, 0, 1, -27.7968, 0);;animation:none"></path>
<path fill="#fff" d="M972.2715574394726 329.5 L986.8349405368442 329.5 A15 15 0 0 1 986.8349405368442 360.5 L972.2715574394726 360.5 A15 15 0 0 1 972.2715574394726 329.5" transform="matrix(1,0,0,1,0,0)" opacity="1" style="fill:rgb(255, 255, 255);transform:matrix(1, 0, 0, 1, 0, 0);;animation:none"></path>
<path fill="#fff" d="M2220 359.5 L945.2590184157623 359.5 A15 15 0 0 1 945.2590184157623 390.5 L2220 390.5" transform="matrix(1,0,0,1,10.358917236328125,0)" style="fill:rgb(255, 255, 255);transform:matrix(1, 0, 0, 1, 10.3589, 0);;animation:none"></path>
<path fill="#000" d="M1988.2705864370294 359.5 L2026.5411728740587 359.5 A15 15 0 0 1 2026.5411728740587 390.5 L1988.2705864370294 390.5 A15 15 0 0 1 1988.2705864370294 359.5" transform="matrix(1,0,0,1,-715.8809204101562,0)" opacity="0.967742" style="fill:rgb(0, 0, 0);transform:matrix(1, 0, 0, 1, -715.881, 0);opacity:0.967742;;animation:none"></path>
<path fill="#fff" d="M2220 389.5 L913.2914194845313 389.5 A15 15 0 0 0 913.2914194845313 420.5 L2220 420.5" transform="matrix(1,0,0,1,-0.06315724551677704,0)" style="fill:rgb(255, 255, 255);transform:matrix(1, 0, 0, 1, -0.0631572, 0);;animation:none"></path>
<path fill="#fff" d="M985.8426625255885 389.5 L1002.4365588910999 389.5 A15 15 0 0 1 1002.4365588910999 420.5 L985.8426625255885 420.5 A15 15 0 0 1 985.8426625255885 389.5" transform="matrix(1,0,0,1,0,0)" opacity="0.32258" style="fill:rgb(255, 255, 255);transform:matrix(1, 0, 0, 1, 0, 0);opacity:0.32258;;animation:none"></path>
<path fill="#fff" d="M2220 419.5 L947.0820217210199 419.5 A15 15 0 0 1 947.0820217210199 450.5 L2220 450.5" transform="matrix(1,0,0,1,39.33536148071289,0)" style="fill:rgb(255, 255, 255);transform:matrix(1, 0, 0, 1, 39.3354, 0);;animation:none"></path>
<path fill="#000" d="M1967.8970396709515 419.5 L1985.794079341903 419.5 A15 15 0 0 1 1985.794079341903 450.5 L1967.8970396709515 450.5 A15 15 0 0 1 1967.8970396709515 419.5" transform="matrix(1,0,0,1,-152.83145141601562,0)" opacity="1" style="fill:rgb(0, 0, 0);transform:matrix(1, 0, 0, 1, -152.831, 0);;animation:none"></path>
<path fill="#fff" d="M2220 449.5 L901.4363387657324 449.5 A15 15 0 0 0 901.4363387657324 480.5 L2220 480.5" transform="matrix(1,0,0,1,-0.5151290893554688,0)" style="fill:rgb(255, 255, 255);transform:matrix(1, 0, 0, 1, -0.515129, 0);;animation:none"></path>
<path fill="#fff" d="M1016.1358912300544 449.5 L1040.0984676285339 449.5 A15 15 0 0 1 1040.0984676285339 480.5 L1016.1358912300544 480.5 A15 15 0 0 1 1016.1358912300544 449.5" transform="matrix(1,0,0,1,0,0)" opacity="0.78341" style="fill:rgb(255, 255, 255);transform:matrix(1, 0, 0, 1, 0, 0);opacity:0.78341;;animation:none"></path>
<path fill="#fff" d="M2220 479.5 L948.1767217478363 479.5 A15 15 0 0 1 948.1767217478363 510.5 L2220 510.5" transform="matrix(1,0,0,1,4.8336381912231445,0)" style="fill:rgb(255, 255, 255);transform:matrix(1, 0, 0, 1, 4.83364, 0);;animation:none"></path>
<path fill="#000" d="M1966.802152666565 479.5 L1983.60430533313 479.5 A15 15 0 0 1 1983.60430533313 510.5 L1966.802152666565 510.5 A15 15 0 0 1 1966.802152666565 479.5" transform="matrix(1,0,0,1,-1163.234619140625,0)" opacity="0.645161" style="fill:rgb(0, 0, 0);transform:matrix(1, 0, 0, 1, -1163.23, 0);opacity:0.645161;;animation:none"></path>
<path fill="#fff" d="M2220 509.5 L924.5309209783754 509.5 A15 15 0 0 0 924.5309209783754 540.5 L2220 540.5" transform="matrix(1,0,0,1,-31.382572174072266,0)" style="fill:rgb(255, 255, 255);transform:matrix(1, 0, 0, 1, -31.3826, 0);;animation:none"></path>
<path fill="#fff" d="M995.5476789736149 509.5 L1010.7181497763212 509.5 A15 15 0 0 1 1010.7181497763212 540.5 L995.5476789736149 540.5 A15 15 0 0 1 995.5476789736149 509.5" transform="matrix(1,0,0,1,0,0)" opacity="1" style="fill:rgb(255, 255, 255);transform:matrix(1, 0, 0, 1, 0, 0);;animation:none"></path>
<path fill="#fff" d="M2220 539.5 L961.7695221386166 539.5 A15 15 0 0 1 961.7695221386166 570.5 L2220 570.5" transform="matrix(1,0,0,1,0.04389381408691406,0)" style="fill:rgb(255, 255, 255);transform:matrix(1, 0, 0, 1, 0.0438938, 0);;animation:none"></path>
<path fill="#000" d="M1977.733864232123 539.5 L2005.4677284642462 539.5 A15 15 0 0 1 2005.4677284642462 570.5 L1977.733864232123 570.5 A15 15 0 0 1 1977.733864232123 539.5" transform="matrix(1,0,0,1,-1678.8963623046875,0)" opacity="0.368664" style="fill:rgb(0, 0, 0);transform:matrix(1, 0, 0, 1, -1678.9, 0);opacity:0.368664;;animation:none"></path>
<path fill="#fff" d="M2220 569.5 L945.4186829745016 569.5 A15 15 0 0 0 945.4186829745016 600.5 L2220 600.5" transform="matrix(1,0,0,1,-37.436885833740234,0)" style="fill:rgb(255, 255, 255);transform:matrix(1, 0, 0, 1, -37.4369, 0);;animation:none"></path>
<path fill="#fff" d="M1037.862400619356 569.5 L1054.3516432043016 569.5 A15 15 0 0 1 1054.3516432043016 600.5 L1037.862400619356 600.5 A15 15 0 0 1 1037.862400619356 569.5" transform="matrix(1,0,0,1,0,0)" opacity="0.46083" style="fill:rgb(255, 255, 255);transform:matrix(1, 0, 0, 1, 0, 0);opacity:0.46083;;animation:none"></path>
<path fill="#fff" d="M2220 599.5 L994.45127249319 599.5 A15 15 0 0 1 994.45127249319 630.5 L2220 630.5" transform="matrix(1,0,0,1,24.01019859313965,0)" style="fill:rgb(255, 255, 255);transform:matrix(1, 0, 0, 1, 24.0102, 0);;animation:none"></path>
<path fill="#000" d="M1960.656269660844 599.5 L1971.3125393216878 599.5 A15 15 0 0 1 1971.3125393216878 630.5 L1960.656269660844 630.5 A15 15 0 0 1 1960.656269660844 599.5" transform="matrix(1,0,0,1,-2081.677734375,0)" opacity="0.092166" style="fill:rgb(0, 0, 0);transform:matrix(1, 0, 0, 1, -2081.68, 0);opacity:0.092166;;animation:none"></path>
<path fill="#fff" d="M2220 629.5 L969.2427054442982 629.5 A15 15 0 0 0 969.2427054442982 660.5 L2220 660.5" transform="matrix(1,0,0,1,-24.66269302368164,0)" style="fill:rgb(255, 255, 255);transform:matrix(1, 0, 0, 1, -24.6627, 0);;animation:none"></path>
<path fill="#fff" d="M1026.8268780771846 629.5 L1058.4122015879823 629.5 A15 15 0 0 1 1058.4122015879823 660.5 L1026.8268780771846 660.5 A15 15 0 0 1 1026.8268780771846 629.5" transform="matrix(1,0,0,1,0,0)" opacity="1" style="fill:rgb(255, 255, 255);transform:matrix(1, 0, 0, 1, 0, 0);;animation:none"></path>
<path fill="#fff" d="M2220 659.5 L994.3679645626069 659.5 A15 15 0 0 1 994.3679645626069 690.5 L2220 690.5" transform="matrix(1,0,0,1,3.979419708251953,0)" style="fill:rgb(255, 255, 255);transform:matrix(1, 0, 0, 1, 3.97942, 0);;animation:none"></path>
<path fill="#000" d="M1966.7912954749002 659.5 L1983.5825909498003 659.5 A15 15 0 0 1 1983.5825909498003 690.5 L1966.7912954749002 690.5 A15 15 0 0 1 1966.7912954749002 659.5" transform="matrix(1,0,0,1,-228.6959686279297,0)" opacity="1" style="fill:rgb(0, 0, 0);transform:matrix(1, 0, 0, 1, -228.696, 0);;animation:none"></path>
<path fill="#fff" d="M2220 689.5 L935.3612997477065 689.5 A15 15 0 0 0 935.3612997477065 720.5 L2220 720.5" transform="matrix(1,0,0,1,-8.237248420715332,0)" style="fill:rgb(255, 255, 255);transform:matrix(1, 0, 0, 1, -8.23725, 0);;animation:none"></path>
<path fill="#fff" d="M1037.2169120864073 689.5 L1072.3803375979417 689.5 A15 15 0 0 1 1072.3803375979417 720.5 L1037.2169120864073 720.5 A15 15 0 0 1 1037.2169120864073 689.5" transform="matrix(1,0,0,1,0,0)" opacity="0.78341" style="fill:rgb(255, 255, 255);transform:matrix(1, 0, 0, 1, 0, 0);opacity:0.78341;;animation:none"></path>
<path fill="#fff" d="M2220 719.5 L997.8396285790376 719.5 A15 15 0 0 1 997.8396285790376 750.5 L2220 750.5" transform="matrix(1,0,0,1,5.45697546005249,0)" style="fill:rgb(255, 255, 255);transform:matrix(1, 0, 0, 1, 5.45698, 0);;animation:none"></path>
<path fill="#000" d="M1965.1626334900238 719.5 L1980.3252669800477 719.5 A15 15 0 0 1 1980.3252669800477 750.5 L1965.1626334900238 750.5 A15 15 0 0 1 1965.1626334900238 719.5" transform="matrix(1,0,0,1,-2065.769775390625,0)" opacity="0.0460821" style="fill:rgb(0, 0, 0);transform:matrix(1, 0, 0, 1, -2065.77, 0);opacity:0.0460821;;animation:none"></path>
<path fill="#fff" d="M2220 749.5 L934.9366126379492 749.5 A15 15 0 0 0 934.9366126379492 780.5 L2220 780.5" transform="matrix(1,0,0,1,-23.058679580688477,0)" style="fill:rgb(255, 255, 255);transform:matrix(1, 0, 0, 1, -23.0587, 0);;animation:none"></path>
<path fill="#fff" d="M1042.9520418127918 749.5 L1061.8592935470426 749.5 A15 15 0 0 1 1061.8592935470426 780.5 L1042.9520418127918 780.5 A15 15 0 0 1 1042.9520418127918 749.5" transform="matrix(1,0,0,1,0,0)" opacity="1" style="fill:rgb(255, 255, 255);transform:matrix(1, 0, 0, 1, 0, 0);;animation:none"></path>
<path fill="#fff" d="M2220 779.5 L973.9576083138351 779.5 A15 15 0 0 1 973.9576083138351 810.5 L2220 810.5" transform="matrix(1,0,0,1,46.89202880859375,0)" style="fill:rgb(255, 255, 255);transform:matrix(1, 0, 0, 1, 46.892, 0);;animation:none"></path>
<path fill="#000" d="M1982.6509184647298 779.5 L2015.3018369294596 779.5 A15 15 0 0 1 2015.3018369294596 810.5 L1982.6509184647298 810.5 A15 15 0 0 1 1982.6509184647298 779.5" transform="matrix(1,0,0,1,-1025.67236328125,0)" opacity="0.691244" style="fill:rgb(0, 0, 0);transform:matrix(1, 0, 0, 1, -1025.67, 0);opacity:0.691244;;animation:none"></path>
<path fill="#fff" d="M2220 809.5 L950.6555459362503 809.5 A15 15 0 0 0 950.6555459362503 840.5 L2220 840.5" transform="matrix(1,0,0,1,-3.878777265548706,0)" style="fill:rgb(255, 255, 255);transform:matrix(1, 0, 0, 1, -3.87878, 0);;animation:none"></path>
<path fill="#fff" d="M1026.606023135016 809.5 L1064.556343802181 809.5 A15 15 0 0 1 1064.556343802181 840.5 L1026.606023135016 840.5 A15 15 0 0 1 1026.606023135016 809.5" transform="matrix(1,0,0,1,0,0)" opacity="0.552995" style="fill:rgb(255, 255, 255);transform:matrix(1, 0, 0, 1, 0, 0);opacity:0.552995;;animation:none"></path>
<path fill="#fff" d="M2220 839.5 L974.306507879228 839.5 A15 15 0 0 1 974.306507879228 870.5 L2220 870.5" transform="matrix(1,0,0,1,12.279119491577148,0)" style="fill:rgb(255, 255, 255);transform:matrix(1, 0, 0, 1, 12.2791, 0);;animation:none"></path>
<path fill="#000" d="M1969.133818736458 839.5 L1988.2676374729158 839.5 A15 15 0 0 1 1988.2676374729158 870.5 L1969.133818736458 870.5 A15 15 0 0 1 1969.133818736458 839.5" transform="matrix(1,0,0,1,-1621.0615234375,0)" opacity="0.414747" style="fill:rgb(0, 0, 0);transform:matrix(1, 0, 0, 1, -1621.06, 0);opacity:0.414747;;animation:none"></path>
<path fill="#fff" d="M2220 869.5 L929.0940955938937 869.5 A15 15 0 0 0 929.0940955938937 900.5 L2220 900.5" transform="matrix(1,0,0,1,-1.8330764770507812,0)" style="fill:rgb(255, 255, 255);transform:matrix(1, 0, 0, 1, -1.83308, 0);;animation:none"></path>
<path fill="#fff" d="M1027.5368183212238 869.5 L1056.8040410300339 869.5 A15 15 0 0 1 1056.8040410300339 900.5 L1027.5368183212238 900.5 A15 15 0 0 1 1027.5368183212238 869.5" transform="matrix(1,0,0,1,0,0)" opacity="0.276498" style="fill:rgb(255, 255, 255);transform:matrix(1, 0, 0, 1, 0, 0);opacity:0.276498;;animation:none"></path>
<path fill="#fff" d="M2220 899.5 L947.8867817084684 899.5 A15 15 0 0 1 947.8867817084684 930.5 L2220 930.5" transform="matrix(1,0,0,1,45.58123779296875,0)" style="fill:rgb(255, 255, 255);transform:matrix(1, 0, 0, 1, 45.5812, 0);;animation:none"></path>
<path fill="#000" d="M1985.488620164756 899.5 L2020.977240329512 899.5 A15 15 0 0 1 2020.977240329512 930.5 L1985.488620164756 930.5 A15 15 0 0 1 1985.488620164756 899.5" transform="matrix(1,0,0,1,-1453.0802001953125,0)" opacity="0.414745" style="fill:rgb(0, 0, 0);transform:matrix(1, 0, 0, 1, -1453.08, 0);opacity:0.414745;;animation:none"></path></g></mask></defs>


<rect mask="url(#ldbk-photon-7qd8miu1iyc-mask)" fill="url(#ldbk-photon-7qd8miu1iyc-lg)" height="919" width="1920" y="0" x="0" style="fill:url('#ldbk-photon-7qd8miu1iyc-lg');;animation:none"></rect>
<g></g></g><!-- [ldio] generated by https://loading.io --></svg>